<svg id="Check_Mark" data-name="Check Mark" xmlns="http://www.w3.org/2000/svg" width="25.938" height="22.53" viewBox="0 0 25.938 22.53">
  <defs>
    <style>
      .cls-1 {
        fill: #1c2161;
      }

      .cls-1, .cls-2 {
        fill-rule: evenodd;
      }

      .cls-2 {
        fill: #404be0;
      }
    </style>
  </defs>
  <path class="cls-1" d="M553.441,1620.19a11.271,11.271,0,0,1-16.046-15.74,11.234,11.234,0,0,1,15.436-1.7c-0.423.34-.812,0.67-1.176,1a9.713,9.713,0,0,0-12.642,1.16,9.726,9.726,0,0,0-.895,12.54,9.743,9.743,0,0,0,8.994,3.96l0.48-.06a9.853,9.853,0,0,0,2.858-.95,9.748,9.748,0,0,0,4.718-12.11c0.157-.17.307-0.34,0.454-0.49,0.251-.26.475-0.49,0.685-0.69A11.221,11.221,0,0,1,553.441,1620.19Z" transform="translate(-534.75 -1600.44)"/>
  <path class="cls-2" d="M546.388,1618.12a8.4,8.4,0,0,1-.62-0.69c-0.181-.23-0.406-0.43-0.588-0.67-0.2-.26-0.439-0.48-0.655-0.73-0.377-.42-0.747-0.85-1.123-1.28-0.16-.18-0.333-0.35-0.488-0.54-0.217-.26-0.466-0.5-0.695-0.76-0.357-.41-0.707-0.82-1.064-1.22-0.16-.19-0.332-0.35-0.487-0.54-0.218-.27-0.465-0.51-0.7-0.77-0.1-.11-0.185-0.23-0.28-0.34,0.832-.6,1.653-1.19,2.458-1.76a0.193,0.193,0,0,1,.183.1c0.4,0.47.808,0.92,1.213,1.38,0.387,0.44.769,0.89,1.16,1.33,0.315,0.35.612,0.72,0.925,1.08a4.718,4.718,0,0,1,.519.59,0.493,0.493,0,0,0,.2-0.25c0.547-.9,1.165-1.76,1.8-2.61,0.426-.56.871-1.11,1.339-1.64,0.314-.36.634-0.71,0.947-1.06,0.569-.65,1.186-1.25,1.81-1.84,0.58-.55,1.191-1.07,1.817-1.57a27.214,27.214,0,0,1,2.431-1.72,20.273,20.273,0,0,1,2.463-1.31c0.56-.24,1.131-0.46,1.72-0.67v0.67c-0.38.17-.727,0.38-1.084,0.58-0.521.29-1.016,0.62-1.5,0.96a18.889,18.889,0,0,0-1.578,1.19c-0.466.38-.92,0.78-1.371,1.19-0.475.42-.924,0.87-1.363,1.33s-0.87.94-1.288,1.43c-0.55.64-1.067,1.31-1.574,1.99-0.279.37-.527,0.76-0.791,1.15-0.523.75-1,1.54-1.455,2.34-0.406.71-.8,1.43-1.157,2.16C547.117,1616.44,546.734,1617.27,546.388,1618.12Z" transform="translate(-534.75 -1600.44)"/>
</svg>
